<svg width="64" height="64" viewBox="0 0 64 64" fill="none" xmlns="http://www.w3.org/2000/svg">
<g clip-path="url(#clip0)">
<path d="M46.594 50.28C46.594 57.857 39.969 64.003 31.797 64.003C23.626 64.003 17.001 57.857 17.001 50.28V13.724C17.001 6.14699 23.626 0.00299072 31.796 0.00299072C39.968 0.00299072 46.593 6.14699 46.593 13.724V50.28H46.594Z" fill="#BFC7CB"/>
<path d="M31.8969 21.777C36.382 21.777 40.0179 18.1411 40.0179 13.656C40.0179 9.17087 36.382 5.53497 31.8969 5.53497C27.4118 5.53497 23.7759 9.17087 23.7759 13.656C23.7759 18.1411 27.4118 21.777 31.8969 21.777Z" fill="#EC1C24"/>
<path d="M31.8969 40.1C36.382 40.1 40.0179 36.4641 40.0179 31.979C40.0179 27.4939 36.382 23.858 31.8969 23.858C27.4118 23.858 23.7759 27.4939 23.7759 31.979C23.7759 36.4641 27.4118 40.1 31.8969 40.1Z" fill="#FFDD15"/>
<path d="M31.8969 58.381C36.382 58.381 40.0179 54.7451 40.0179 50.26C40.0179 45.7749 36.382 42.139 31.8969 42.139C27.4118 42.139 23.7759 45.7749 23.7759 50.26C23.7759 54.7451 27.4118 58.381 31.8969 58.381Z" fill="#4FBA80"/>
</g>
<defs>
<clipPath id="clip0">
<rect width="64" height="64" fill="white"/>
</clipPath>
</defs>
</svg>
